<?xml version="1.0" encoding="utf-8"?>
<svg width="150px" height="150px" viewBox="0 0 150 150" xmlns="http://www.w3.org/2000/svg">
  <defs>
    <path id="path-0" d="M 60.57 46.318 C 86.664 45.724 99.762 64.957 99.762 76.01 C 99.762 85.346 79.084 86.203 73.634 86.698 C 63.823 83.419 47.545 78.385 43.943 78.385 C 32.004 77.197 32.033 70.632 27.316 65.914 C 21.52 54.813 20.784 47.329 20.784 40.974" style="fill: none;"/>
  </defs>
  <rect width="150" height="150" style="fill: rgb(138, 63, 252);"/>
  <path d="M 74.933 123.039 C 68.412 123.039 62.65 121.699 57.647 119.019 C 52.644 116.339 48.758 112.565 45.989 107.696 C 43.22 102.827 41.835 97.222 41.835 90.879 L 41.835 58.987 C 41.835 52.644 43.22 47.061 45.989 42.237 C 48.758 37.413 52.644 33.661 57.647 30.981 C 62.65 28.301 68.412 26.961 74.933 26.961 C 81.544 26.961 87.35 28.301 92.353 30.981 C 97.356 33.661 101.242 37.413 104.011 42.237 C 106.78 47.061 108.165 52.644 108.165 58.987 L 108.165 90.879 C 108.165 97.222 106.78 102.827 104.011 107.696 C 101.242 112.565 97.356 116.339 92.353 119.019 C 87.35 121.699 81.544 123.039 74.933 123.039 Z M 74.933 111.917 C 81.008 111.917 85.921 110.041 89.673 106.289 C 93.425 102.537 95.301 97.579 95.301 91.415 L 95.301 58.853 C 95.301 52.6 93.425 47.575 89.673 43.778 C 85.921 39.981 81.008 38.083 74.933 38.083 C 68.858 38.083 63.967 39.981 60.26 43.778 C 56.553 47.575 54.699 52.6 54.699 58.853 L 54.699 91.415 C 54.699 97.579 56.553 102.537 60.26 106.289 C 63.967 110.041 68.858 111.917 74.933 111.917 Z" style="fill: rgb(255, 255, 255); white-space: pre;"/>
</svg>